<svg xmlns="http://www.w3.org/2000/svg" width="722" height="944" viewBox="0 0 722 944" version="1.1"><path d="M 201.750 2.747 C 207.938 2.922, 218.063 2.922, 224.250 2.747 C 230.438 2.571, 225.375 2.428, 213 2.428 C 200.625 2.428, 195.563 2.571, 201.750 2.747 M 254.750 223.731 C 253.787 223.960, 253 224.789, 253 225.573 C 253 226.428, 251.998 227, 250.500 227 C 248.100 227, 248 227.251, 247.997 233.250 C 247.994 239.083, 247.794 239.633, 244.992 241.500 C 243.341 242.600, 242.191 244.030, 242.436 244.677 C 242.681 245.324, 242.214 246.408, 241.398 247.085 C 240.396 247.916, 240.244 248.644, 240.929 249.329 C 241.977 250.377, 240.257 251.742, 234.804 254.188 C 231.875 255.502, 231.264 257.777, 231.095 268 C 231.045 271.025, 230.565 274.625, 230.027 276 C 226.351 285.401, 226.889 299.779, 231.057 303.551 C 232.126 304.519, 233 305.889, 233 306.596 C 233 309.932, 247.903 307.379, 248.079 304.012 C 248.133 302.986, 248.320 302.901, 248.662 303.750 C 249.234 305.166, 252 305.470, 252 304.117 C 252 303.631, 252.787 302.945, 253.750 302.592 C 258.209 300.957, 261.183 298.577, 263.246 294.994 C 267.342 287.878, 274.298 286.900, 281 292.500 C 286.053 296.721, 292.895 295.366, 291.094 290.500 C 290.890 289.950, 290.793 288.146, 290.877 286.492 C 290.961 284.838, 290.577 281.238, 290.023 278.492 C 289.469 275.746, 288.315 269.675, 287.459 265 C 285.840 256.161, 283.949 252, 281.548 252 C 280.705 252, 279.504 249.806, 278.548 246.518 C 277.031 241.297, 273.545 236.545, 271.955 237.528 C 271.547 237.780, 270.946 236.920, 270.618 235.616 C 270.291 234.312, 268.893 232.505, 267.512 231.600 C 266.130 230.694, 265 229.289, 265 228.477 C 265 227.191, 263.162 226.501, 260.750 226.882 C 260.337 226.947, 260 226.196, 260 225.213 C 260 223.435, 258.170 222.918, 254.750 223.731 M 360.957 278.376 C 360.692 278.641, 358.006 279.082, 354.988 279.356 C 340.785 280.645, 331.165 286.107, 318.630 300 C 315.412 303.566, 313.741 310.154, 315.381 312.808 C 315.825 313.526, 316.351 315.101, 316.549 316.307 C 317.131 319.845, 319.764 328.690, 320.825 330.673 C 321.363 331.678, 322.113 334.750, 322.493 337.500 C 322.872 340.250, 323.546 344.075, 323.991 346 C 324.436 347.925, 325.058 350.659, 325.375 352.076 C 326.455 356.910, 340.290 368.587, 349.493 372.432 C 357.153 375.633, 369.687 375.042, 377.848 371.095 C 385.836 367.232, 389.401 365.252, 390.960 363.810 C 391.965 362.881, 393.094 362.428, 393.470 362.803 C 394.224 363.558, 403.975 353.154, 404.042 351.523 C 404.129 349.368, 410.741 342.884, 411.318 344.387 C 412.269 346.866, 407.733 359.138, 402.793 367.451 C 397.117 377.003, 397.238 377.283, 405.037 372.637 C 408.392 370.639, 412.344 368.710, 413.819 368.350 C 424.755 365.686, 430.696 354.359, 427.600 342.075 C 426.828 339.009, 425.686 333.700, 425.064 330.277 C 422.097 313.956, 412.077 300.193, 395.600 289.806 C 390.951 286.875, 374.378 280.139, 370.405 279.565 C 367.707 279.175, 364.586 278.640, 363.470 278.375 C 362.353 278.110, 361.223 278.111, 360.957 278.376 M 615.530 297.160 C 612.247 298.269, 608.352 300.037, 606.876 301.088 C 605.399 302.140, 603.746 303, 603.203 303 C 602.659 303, 601.955 303.675, 601.638 304.500 C 601.322 305.325, 600.546 306, 599.913 306 C 597.265 306, 583.514 320.405, 584.555 322.089 C 584.788 322.465, 584.343 323.300, 583.567 323.944 C 582.791 324.588, 581.857 326.887, 581.491 329.052 C 581.125 331.218, 580.415 333.243, 579.913 333.554 C 577.257 335.195, 581.166 347.936, 585.978 353.323 C 587.365 354.875, 589.420 357.846, 590.545 359.925 C 593.313 365.039, 598.886 371.215, 602.314 372.968 C 603.862 373.759, 607.132 376.354, 609.581 378.734 C 616.284 385.249, 616.888 385.369, 630.239 382.825 C 633.395 382.223, 636.488 381.117, 637.111 380.366 C 637.735 379.615, 638.834 379, 639.555 379 C 640.276 379, 641.139 378.136, 641.475 377.080 C 641.810 376.024, 643.607 373.497, 645.468 371.465 C 648.968 367.644, 649.668 366.195, 652.389 357.135 C 655.736 345.989, 652.019 319, 647.137 319 C 646.179 319, 642 309.065, 642 306.788 C 642 302.707, 637.930 298, 634.401 298 C 632.045 298, 631 297.539, 631 296.500 C 631 294.317, 622.925 294.661, 615.530 297.160 M 370.960 301.831 C 366.372 305.547, 369.851 309.864, 378.648 311.370 C 385.268 312.504, 385.552 303.939, 378.942 302.487 C 377.337 302.135, 375.766 301.431, 375.452 300.923 C 374.610 299.559, 373.485 299.787, 370.960 301.831 M 339 314.083 C 339 316.520, 341.337 316.176, 341.823 313.667 C 342.015 312.680, 341.505 312, 340.573 312 C 339.646 312, 339 312.855, 339 314.083 M 616.797 312.683 C 612.759 313.739, 613.318 318.749, 617.746 321.202 C 623.073 324.152, 629.641 323.654, 630.295 320.250 C 630.972 316.721, 629.710 315.268, 624.821 313.952 C 622.651 313.367, 620.341 312.743, 619.687 312.563 C 619.034 312.384, 617.734 312.438, 616.797 312.683 M 323.780 449.477 C 320.653 450.271, 318.561 450.334, 317.372 449.668 C 316.144 448.981, 315.489 449.033, 315.220 449.840 C 315.007 450.478, 314.196 451, 313.417 451 C 312.637 451, 312 451.921, 312 453.048 C 312 454.174, 310.875 456.138, 309.500 457.412 C 307.354 459.401, 307 460.603, 307 465.896 C 307 470.207, 306.586 472.222, 305.624 472.591 C 304.331 473.087, 302.162 489.030, 302.847 493 C 303.688 497.867, 303.604 511.591, 302.730 512.147 C 301.401 512.994, 301.509 524.214, 302.872 526.760 C 303.454 527.847, 303.688 528.978, 303.393 529.273 C 302.605 530.062, 306.226 534, 307.738 534 C 308.450 534, 309.783 535.575, 310.701 537.500 C 311.619 539.425, 312.850 541.017, 313.435 541.038 C 314.021 541.059, 315.733 542.859, 317.240 545.038 C 318.748 547.217, 320.612 549, 321.384 549 C 325.207 549, 323.427 553.930, 319.550 554.079 C 318.423 554.122, 318.063 554.385, 318.750 554.662 C 320.479 555.360, 320.322 557, 318.526 557 C 317.715 557, 316.381 558.295, 315.563 559.879 C 314.017 562.868, 312.192 564, 308.918 564 C 307.863 564, 307 564.450, 307 565 C 307 565.550, 306.377 566, 305.617 566 C 304.856 566, 303.986 566.945, 303.684 568.101 C 303.382 569.256, 302.685 569.923, 302.135 569.584 C 301.583 569.242, 300.994 570.203, 300.818 571.733 C 300.582 573.790, 299.537 574.970, 296.750 576.332 C 294.688 577.340, 293 578.829, 293 579.641 C 293 580.454, 292.550 580.840, 292 580.500 C 291.450 580.160, 291 580.251, 291 580.701 C 291 581.152, 289.857 582.753, 288.460 584.260 C 287.062 585.767, 286.387 587, 286.960 587 C 287.532 587, 288 587.450, 288 588 C 288 588.550, 287.395 589, 286.655 589 C 285.915 589, 284.481 589.916, 283.468 591.035 C 282.455 592.155, 281.073 592.858, 280.396 592.598 C 278.805 591.988, 277.729 594.714, 279.306 595.359 C 280.164 595.710, 280.077 596.177, 279 597.018 C 277.735 598.005, 277.799 598.091, 279.405 597.566 C 281.464 596.893, 286.352 600.621, 285.410 602.145 C 285.120 602.615, 285.605 603, 286.489 603 C 287.373 603, 289.123 604.194, 290.378 605.653 C 292.986 608.685, 304 610.034, 304 607.322 C 304 605.404, 305.180 605.681, 309 608.500 C 312.389 611, 312.389 611, 309.635 611 C 308.054 611, 307.145 611.426, 307.500 612 C 307.840 612.550, 308.991 613, 310.059 613 C 311.150 613, 312 613.682, 312 614.559 C 312 615.416, 312.409 615.865, 312.910 615.556 C 314.271 614.714, 317 616.027, 317 617.524 C 317 618.244, 317.504 619.001, 318.121 619.207 C 318.737 619.412, 319.387 621.362, 319.565 623.540 C 320.262 632.042, 321.308 639, 321.890 639.001 C 323.120 639.002, 322.550 666.042, 321.305 666.812 C 320.487 667.317, 320.359 668.658, 320.900 671.058 C 321.408 673.309, 321.299 674.911, 320.596 675.532 C 318.343 677.522, 314.153 679.213, 313.095 678.559 C 312.411 678.136, 312 678.841, 312 680.441 C 312 681.953, 311.434 683, 310.617 683 C 309.856 683, 308.998 683.900, 308.710 685 C 308.397 686.197, 307.346 687, 306.094 687 C 304.667 687, 304 687.637, 304 689 C 304 690.100, 303.550 691, 303 691 C 302.450 691, 302 692.800, 302 695 C 302 697.889, 301.583 699, 300.500 699 C 299.292 699, 299 700.556, 299 707 C 299 712.224, 299.388 715, 300.117 715 C 300.821 715, 300.968 715.830, 300.513 717.250 C 300.116 718.487, 299.682 720.625, 299.548 722 C 299.346 724.072, 298.778 724.499, 296.234 724.495 C 293.249 724.491, 292.470 725.728, 294.500 727.250 C 296.550 728.787, 292.658 729.742, 286.391 729.239 C 281.983 728.885, 280 729.079, 280 729.863 C 280 730.488, 279.100 731, 278 731 C 276.900 731, 276 730.373, 276 729.607 C 276 727.972, 273.427 726.672, 270.250 726.704 C 267.942 726.726, 266.998 725.054, 269.250 724.932 C 269.938 724.895, 269.488 724.376, 268.250 723.780 C 267.012 723.183, 266 722.349, 266 721.927 C 266 721.504, 264.655 720.864, 263.012 720.503 C 261.369 720.142, 259.167 718.756, 258.118 717.423 C 257.070 716.090, 255.264 715, 254.106 715 C 252.807 715, 252 714.361, 252 713.333 C 252 712.417, 251.704 711.963, 251.342 712.325 C 250.980 712.687, 250.080 712.481, 249.342 711.869 C 248.477 711.151, 248 711.121, 248 711.784 C 248 712.350, 247.100 712.577, 246 712.290 C 244.900 712.002, 244 711.144, 244 710.383 C 244 709.201, 239.988 708.370, 236.750 708.882 C 234.998 709.158, 236.186 707.076, 238.132 706.458 C 241.819 705.288, 238.126 704.032, 230.950 704.015 C 227.348 704.007, 223.963 703.563, 223.429 703.029 C 222.363 701.963, 218.966 701.190, 214.844 701.074 C 212.433 701.007, 212.125 700.543, 211.507 696.053 C 211.133 693.333, 209.975 690.124, 208.934 688.924 C 207.893 687.724, 207.284 686.350, 207.580 685.871 C 208.400 684.544, 204.568 684.832, 203.200 686.200 C 202.267 687.133, 202 687.133, 202 686.200 C 202 685.540, 201.550 685, 201 685 C 200.450 685, 200 685.675, 200 686.500 C 200 687.500, 199 688, 197 688 C 195 688, 194 687.500, 194 686.500 C 194 685.367, 192.778 685, 189 685 C 186.250 685, 184 684.550, 184 684 C 184 683.450, 183.325 683, 182.500 683 C 181.675 683, 181 683.450, 181 684 C 181 684.550, 179.875 685, 178.500 685 C 176.760 685, 176 685.547, 176 686.799 C 176 688.614, 169.475 691.808, 168.256 690.590 C 167.930 690.263, 166.853 690.728, 165.864 691.623 C 164.875 692.518, 163.173 693.017, 162.081 692.731 C 160.989 692.446, 159.962 692.502, 159.798 692.856 C 158.537 695.581, 152.245 697, 141.419 697 C 134.682 697, 130 697.399, 130 697.973 C 130 698.509, 127.412 698.932, 124.250 698.915 C 116.097 698.870, 115.102 699.102, 114.437 701.199 C 114.111 702.225, 112.803 704.106, 111.531 705.378 C 107.706 709.203, 105.589 768.337, 108.895 779 C 109.677 781.520, 110.208 786.856, 110.102 791.126 C 109.897 799.390, 111.697 802.324, 114.143 797.713 C 114.789 796.496, 116.167 794.897, 117.206 794.160 C 118.563 793.198, 118.805 792.470, 118.065 791.578 C 117.341 790.706, 117.467 789.764, 118.485 788.418 C 119.892 786.558, 119.937 786.569, 119.968 788.750 C 119.986 789.987, 120.563 791.007, 121.250 791.015 C 122.083 791.026, 122 791.354, 121 792 C 119.669 792.860, 119.670 792.971, 121.009 792.985 C 124.992 793.025, 128.064 807.517, 125.428 813.826 C 124.643 815.706, 124 818.120, 124 819.190 C 124 820.706, 123.504 821.012, 121.750 820.577 C 120.512 820.270, 120.063 820.277, 120.750 820.593 C 122.825 821.545, 122.157 825.732, 119.610 827.734 C 118.296 828.768, 117.054 830.488, 116.850 831.557 C 116.640 832.657, 115.507 833.639, 114.240 833.820 C 112.685 834.041, 112 834.821, 112 836.369 C 112 838.332, 111.578 838.549, 108.470 838.186 C 104.962 837.777, 104.948 837.791, 106.167 840.466 C 107.101 842.516, 107.942 843.053, 109.697 842.718 C 111.099 842.450, 112 842.762, 112 843.516 C 112 845.396, 114.677 847.332, 115.480 846.032 C 116.426 844.502, 117.869 845.694, 117.562 847.754 C 117.371 849.038, 116.535 849.422, 114.401 849.205 C 112.157 848.977, 111.839 849.144, 113 849.940 C 114.011 850.634, 114.093 850.974, 113.250 850.985 C 112.563 850.993, 112 851.930, 112 853.066 C 112 854.202, 111.534 856.002, 110.965 857.066 C 110.251 858.399, 110.251 859, 110.965 859 C 112.514 859, 112.153 869.108, 110.500 872 C 109.714 873.375, 109.055 876.357, 109.035 878.628 C 109.015 880.967, 108.374 883.274, 107.556 883.954 C 106.762 884.613, 105.974 886.805, 105.806 888.826 C 105.571 891.651, 105.023 892.568, 103.439 892.795 C 102.306 892.957, 100.532 894.532, 99.497 896.295 C 97.316 900.012, 90.531 907, 89.104 907 C 88.568 907, 86.863 908.790, 85.315 910.979 C 83.767 913.167, 81.767 914.967, 80.871 914.979 C 79.976 914.990, 78.655 916.418, 77.937 918.151 C 76.792 920.917, 76.541 921.070, 75.886 919.401 C 75.245 917.766, 75.131 917.740, 75.070 919.215 C 75.032 920.158, 73.987 921.461, 72.750 922.111 C 71.513 922.760, 70.151 923.883, 69.724 924.604 C 69.297 925.326, 68.334 925.682, 67.584 925.394 C 66.307 924.904, 61.008 929.248, 60.994 930.795 C 60.985 931.767, 55.160 935, 53.419 935 C 52.572 935, 52 933.992, 52 932.500 C 52 931.125, 52.438 930, 52.974 930 C 55.132 930, 57.158 923.561, 57.487 915.657 C 57.807 907.960, 61.217 896.539, 64.088 893.550 C 64.589 893.027, 65.012 891.677, 65.028 890.550 C 65.043 889.384, 66.541 887.422, 68.500 886 C 70.742 884.374, 72.169 882.364, 72.584 880.250 C 72.935 878.462, 73.623 877, 74.111 877 C 74.600 877, 75 876.311, 75 875.469 C 75 874.626, 75.622 873.699, 76.382 873.407 C 77.142 873.115, 78.065 870.992, 78.433 868.688 C 78.873 865.926, 79.973 863.803, 81.663 862.454 C 83.264 861.176, 84.079 859.675, 83.835 858.454 C 83.498 856.766, 83.192 856.924, 81.584 859.620 C 80.330 861.721, 79.148 862.590, 77.963 862.280 C 75.913 861.744, 72 863.599, 72 865.107 C 72 865.677, 71.325 866.818, 70.500 867.643 C 69.675 868.468, 69 870.063, 69 871.188 C 69 872.777, 68.529 873.110, 66.889 872.681 C 65.728 872.377, 64.131 872.663, 63.341 873.315 C 57.667 877.996, 55.689 881.454, 57.121 884.189 C 57.662 885.223, 57.616 886.119, 57.003 886.498 C 55.489 887.434, 55.800 889, 57.500 889 C 58.325 889, 59 889.450, 59 890 C 59 890.550, 58.325 891, 57.500 891 C 56.455 891, 56 892.052, 56 894.469 C 56 897.191, 55.667 897.809, 54.449 897.342 C 53.210 896.867, 53.027 897.260, 53.539 899.301 C 53.892 900.706, 53.704 902.675, 53.121 903.678 C 52.493 904.757, 52.048 904.966, 52.030 904.191 C 51.975 901.823, 50 904.062, 50 906.492 C 50 907.987, 49.260 909.100, 48 909.500 C 46.900 909.849, 46 910.747, 46 911.496 C 46 912.245, 45.268 913.589, 44.374 914.483 C 42.530 916.327, 42.266 924.411, 43.983 926.479 C 45.117 927.845, 44.356 931, 42.893 931 C 42.402 931, 42 932.350, 42 934 C 42 935.650, 41.550 937, 41 937 C 39.561 937, 39.766 939.739, 41.250 940.338 C 43.712 941.331, 15.422 940.967, 11.791 939.959 C 7.260 938.700, 2.343 933.974, 1.102 929.685 C 0.180 926.500, 0.180 926.500, 0.090 929.538 C -0.039 933.886, 4.549 938.994, 10.064 940.643 C 13.717 941.735, 72.847 941.929, 345 941.739 C 526.775 941.612, 617.044 941.392, 545.598 941.250 C 422.089 941.005, 415.772 940.907, 417.215 939.246 C 418.085 938.246, 418.997 934.514, 419.352 930.505 C 419.692 926.658, 420.375 923.375, 420.869 923.210 C 421.398 923.034, 421.391 921.235, 420.851 918.830 C 420.142 915.676, 420.279 914.223, 421.456 912.427 C 423.074 909.957, 422.730 908.029, 419.949 904 C 416.094 898.415, 418.680 878.211, 423.486 876.367 C 424.277 876.063, 425.223 874.844, 425.588 873.658 C 425.953 872.471, 427.557 869.546, 429.154 867.158 C 430.750 864.770, 432.156 861.845, 432.278 860.658 C 432.400 859.471, 433.288 858.177, 434.250 857.782 C 435.212 857.387, 436 856.122, 436 854.970 C 436 851.748, 439.104 843, 440.247 843 C 441.676 843, 440.603 836.072, 438.480 831.599 C 436.782 828.021, 436.790 827.851, 438.776 825.707 C 439.901 824.493, 441.348 821.475, 441.992 819 C 442.636 816.525, 443.839 813.446, 444.665 812.158 C 445.491 810.870, 446.167 807.820, 446.167 805.380 C 446.167 801.413, 446.698 800.391, 451.192 795.722 C 456.495 790.211, 458 787.475, 458 783.344 C 458 781.623, 459.592 779.285, 463 776 C 467.376 771.782, 468 770.678, 468 767.149 C 468 764.932, 468.400 762.871, 468.889 762.568 C 469.378 762.266, 470.084 760.802, 470.457 759.314 C 470.831 757.826, 473.693 753.864, 476.818 750.510 C 479.943 747.155, 483.063 743.193, 483.750 741.705 C 484.438 740.217, 485.522 737.883, 486.160 736.517 C 486.798 735.151, 488.148 733.145, 489.160 732.059 C 491.518 729.528, 491.481 728.317, 489 726.768 C 486.660 725.306, 486.313 723.799, 488.511 724.643 C 489.574 725.051, 489.846 724.763, 489.429 723.674 C 489.102 722.823, 488.277 722.340, 487.595 722.602 C 486.072 723.186, 483.836 718.590, 484.634 716.512 C 485.068 715.381, 484.494 714.998, 482.357 714.994 C 479.351 714.987, 476 710.795, 476 707.041 C 476 706.053, 475.325 704.685, 474.500 704 C 473.675 703.315, 473 701.262, 473 699.437 C 473 697.611, 472.527 695.826, 471.948 695.468 C 471.370 695.110, 471 693.621, 471.127 692.159 C 471.576 686.977, 469.841 681.126, 467.378 679.512 C 466.070 678.655, 464.993 677.177, 464.985 676.227 C 464.973 674.899, 464.774 674.808, 464.124 675.834 C 462.947 677.691, 462 675.027, 462 669.859 C 462 667.462, 461.603 666.128, 461 666.500 C 460.433 666.851, 460 666.010, 460 664.559 C 460 663.152, 459.512 662, 458.917 662 C 458.321 662, 458.023 661.438, 458.254 660.750 C 458.486 660.063, 458.066 659.050, 457.320 658.500 C 456.575 657.950, 455.681 655.102, 455.334 652.170 C 454.959 649.006, 453.697 645.359, 452.226 643.192 C 450.864 641.185, 449.750 638.521, 449.750 637.271 C 449.750 636.022, 449.293 635, 448.735 635 C 448.176 635, 449.209 633.476, 451.031 631.613 C 452.852 629.750, 454.498 627.206, 454.688 625.959 C 454.879 624.713, 456.152 622.576, 457.517 621.210 C 458.883 619.845, 460 617.925, 460 616.945 C 460 613.789, 461.125 612.086, 464.648 609.908 C 467.527 608.129, 468.048 607.273, 467.799 604.738 C 467.373 600.414, 478.033 594.908, 490 593.271 C 491.925 593.007, 495.075 592.119, 497 591.296 C 506.739 587.133, 514.792 584.924, 519.500 585.126 C 525.304 585.374, 526.502 584.820, 536.810 577.123 C 544.959 571.039, 553.426 566, 555.502 566 C 556.189 566, 559.170 564.941, 562.126 563.647 C 565.082 562.354, 570.425 561.025, 574 560.694 C 581.876 559.966, 592.004 556.744, 593.215 554.580 C 593.702 553.711, 594.815 553, 595.689 553 C 596.564 553, 597.877 552.212, 598.608 551.250 C 599.578 549.972, 599.945 549.875, 599.968 550.890 C 600.016 552.965, 607.461 544.820, 607.615 542.523 C 607.844 539.136, 605.065 536.097, 601.153 535.455 C 597.713 534.891, 596.211 534.396, 590.750 532.022 C 589.513 531.484, 587.280 530.901, 585.788 530.727 C 584.296 530.552, 582.759 530.092, 582.371 529.704 C 581.984 529.317, 580.152 529, 578.301 529 C 574.114 529, 568.164 526.590, 567.394 524.583 C 567.075 523.754, 565.957 522.804, 564.908 522.471 C 563.858 522.138, 563 521.413, 563 520.861 C 563 519.738, 560.924 517.434, 559.714 517.214 C 558.317 516.960, 556.076 514.257, 556.725 513.609 C 557.530 512.804, 554.414 510.305, 550.296 508.453 C 546.483 506.738, 545.523 503.268, 546.461 494.585 C 547.580 484.221, 550.288 479.545, 561.250 469.047 C 565.400 465.073, 565.745 463.888, 563.429 461.571 C 561.342 459.485, 557.423 459.577, 555.236 461.764 C 546.343 470.657, 531.129 471.965, 523.343 464.504 C 520.758 462.027, 519.017 460, 519.476 460 C 521.093 460, 516.454 455.764, 512.790 453.894 C 508.058 451.479, 504.361 451.504, 497.260 454 C 494.130 455.100, 490.339 456, 488.834 456 C 484.549 456, 483.151 462.250, 486.826 464.980 C 487.211 465.266, 487.970 466.803, 488.513 468.396 C 489.056 469.989, 490.380 471.789, 491.456 472.396 C 492.532 473.003, 495.033 475.188, 497.014 477.250 C 498.995 479.313, 501.153 481, 501.808 481 C 502.464 481, 503 481.900, 503 483 C 503 484.100, 503.788 485.825, 504.750 486.833 C 506.652 488.826, 506.733 489.063, 507.441 494.699 C 508.089 499.856, 507.265 500.812, 501.171 501.968 C 498.297 502.513, 495.106 503.408, 494.078 503.958 C 492.727 504.681, 491.898 504.582, 491.083 503.600 C 489.128 501.245, 483.915 500.767, 481.732 502.742 C 480.664 503.709, 479.500 504.393, 479.145 504.262 C 478.089 503.872, 474.548 505.195, 473.884 506.227 C 473.511 506.807, 472.403 506.655, 471.073 505.842 C 469.168 504.677, 468.706 504.732, 467.576 506.254 C 466.860 507.218, 464.975 508.188, 463.387 508.410 C 457.470 509.236, 454 510.279, 454 511.232 C 454 511.772, 453.341 511.961, 452.536 511.652 C 450.704 510.949, 440 513.130, 440 514.206 C 440 514.643, 439.357 515, 438.571 515 C 437.786 515, 436.522 515.621, 435.763 516.380 C 435.004 517.139, 432.047 518.081, 429.192 518.474 C 425.736 518.949, 424 519.658, 424 520.594 C 424 521.367, 423.212 522.036, 422.250 522.079 C 421.205 522.126, 421.003 522.361, 421.750 522.662 C 424.152 523.631, 422.973 525, 419.750 524.985 C 417.284 524.973, 416.862 524.736, 418 524 C 419.216 523.214, 419.081 523.028, 417.281 523.015 C 415.818 523.005, 415.240 523.463, 415.585 524.360 C 416.255 526.107, 409.489 527.332, 406.880 525.936 C 404.947 524.901, 400 525.663, 400 526.995 C 400 527.826, 396.688 528.630, 388.240 529.849 C 383.548 530.526, 382.753 530.366, 380.881 528.374 C 378.745 526.100, 376.882 525.785, 367.500 526.109 C 361.362 526.321, 358.638 526.268, 353.548 525.836 C 350.057 525.539, 349.528 525.784, 349.018 527.936 C 348.337 530.807, 344.147 532.284, 339.250 531.378 C 334.820 530.559, 335.142 529.007, 339.750 528.968 C 341.813 528.951, 344.400 528.243, 345.500 527.396 C 347.378 525.949, 347.272 525.897, 343.750 526.539 C 341.256 526.994, 340 526.850, 340 526.111 C 340 525.500, 339.663 525.095, 339.250 525.212 C 336.928 525.869, 334 522.316, 334 518.843 C 334 516.807, 333.442 514.967, 332.750 514.719 C 331.946 514.431, 332.456 513.503, 334.178 512.120 C 336.092 510.582, 336.853 509.047, 336.845 506.734 C 336.828 501.132, 338.164 496.770, 340.048 496.277 C 341.028 496.021, 342.149 494.616, 342.539 493.156 C 342.928 491.695, 343.445 491.037, 343.688 491.694 C 343.931 492.350, 344.773 492.641, 345.559 492.339 C 346.345 492.037, 346.740 491.388, 346.435 490.895 C 346.131 490.403, 346.573 490, 347.417 490 C 349.434 490, 356.778 478.473, 357.610 474 C 357.968 472.075, 358.703 469.942, 359.244 469.261 C 361.406 466.536, 357.605 456, 354.460 456 C 353.638 456, 348.894 454.613, 343.917 452.918 C 338.941 451.223, 334.223 450.084, 333.434 450.387 C 332.645 450.690, 332 450.554, 332 450.085 C 332 448.539, 328.495 448.280, 323.780 449.477 M 298.508 495.962 C 298.151 497.591, 298.326 499.728, 298.899 500.712 C 299.726 502.134, 299.945 501.528, 299.970 497.750 C 300.004 492.327, 299.455 491.654, 298.508 495.962" stroke="none" fill="#74483d" fill-rule="evenodd"/><path d="M 181.541 3.745 C 170.731 4.411, 159.077 15.214, 150.521 32.500 C 147.526 38.550, 143.821 45.750, 142.288 48.500 C 137.141 57.730, 137.536 141.129, 142.871 171.757 C 145.050 184.266, 147.093 199.675, 147.410 206 C 147.728 212.325, 148.441 219.072, 148.994 220.993 C 149.547 222.915, 150 227.484, 150 231.147 C 150 252.240, 157.012 269.224, 168.176 275.174 C 173.652 278.093, 176.921 281.339, 180.086 287 C 181.052 288.727, 181.641 294.518, 181.992 305.736 C 182.500 321.973, 182.500 321.973, 192.336 331.570 C 203.687 342.645, 204.999 345.142, 206.095 357.741 C 206.968 367.775, 207.670 369.614, 216.513 385 C 219.516 390.225, 221.979 395.220, 221.987 396.100 C 221.994 396.980, 223.303 399.498, 224.895 401.696 C 229.198 407.636, 230.727 410.990, 232.608 418.611 C 233.543 422.400, 236.440 430.900, 239.045 437.500 C 247.072 457.834, 247.897 470.492, 241.584 476.449 C 239.805 478.127, 237.334 481.188, 236.093 483.250 C 234.852 485.312, 233.472 487, 233.027 487 C 232.582 487, 229.806 489.391, 226.859 492.313 C 223.911 495.236, 215.875 502.701, 209 508.902 C 191.796 524.422, 175.229 541.895, 162.925 557.500 C 159.456 561.900, 154.309 567.975, 151.487 571 C 148.666 574.025, 145.512 577.850, 144.480 579.500 C 136.513 592.230, 120.776 608.803, 106.500 619.498 C 69.525 647.197, 63.661 652.398, 55.658 664.596 C 41.428 686.284, 34.008 704.110, 32.050 721.312 C 31.475 726.365, 30.104 734.931, 29.002 740.347 C 27.901 745.762, 27 751.297, 27 752.647 C 27 755.346, 21.285 777.536, 19.926 780.115 C 18.980 781.909, 14.895 797.434, 13.097 806.068 C 12.324 809.783, 10.614 813.398, 7.960 816.931 C 5.772 819.843, 3.707 823.412, 3.371 824.863 C 3.035 826.313, 2.123 828.011, 1.344 828.636 C -1.378 830.821, -0.127 928.493, 2.681 933 C 6.789 939.593, 9.560 940.472, 27 940.721 C 35.525 940.842, 41.937 940.692, 41.250 940.387 C 39.765 939.729, 39.563 937, 41 937 C 41.550 937, 42 935.650, 42 934 C 42 932.350, 42.402 931, 42.893 931 C 44.356 931, 45.117 927.845, 43.983 926.479 C 42.266 924.411, 42.530 916.327, 44.374 914.483 C 45.268 913.589, 46 912.245, 46 911.496 C 46 910.747, 46.900 909.849, 48 909.500 C 49.260 909.100, 50 907.987, 50 906.492 C 50 904.062, 51.975 901.823, 52.030 904.191 C 52.048 904.966, 52.493 904.757, 53.121 903.678 C 53.704 902.675, 53.892 900.706, 53.539 899.301 C 53.027 897.260, 53.210 896.867, 54.449 897.342 C 55.667 897.809, 56 897.191, 56 894.469 C 56 892.052, 56.455 891, 57.500 891 C 58.325 891, 59 890.550, 59 890 C 59 889.450, 58.325 889, 57.500 889 C 55.800 889, 55.489 887.434, 57.003 886.498 C 57.616 886.119, 57.662 885.223, 57.121 884.189 C 55.689 881.454, 57.667 877.996, 63.341 873.315 C 64.131 872.663, 65.728 872.377, 66.889 872.681 C 68.529 873.110, 69 872.777, 69 871.188 C 69 870.063, 69.675 868.468, 70.500 867.643 C 71.325 866.818, 72 865.677, 72 865.107 C 72 863.599, 75.913 861.744, 77.963 862.280 C 79.148 862.590, 80.330 861.721, 81.584 859.620 C 83.192 856.924, 83.498 856.766, 83.835 858.454 C 84.079 859.675, 83.264 861.176, 81.663 862.454 C 79.973 863.803, 78.873 865.926, 78.433 868.688 C 78.065 870.992, 77.142 873.115, 76.382 873.407 C 75.622 873.699, 75 874.626, 75 875.469 C 75 876.311, 74.600 877, 74.111 877 C 73.623 877, 72.935 878.462, 72.584 880.250 C 72.169 882.364, 70.742 884.374, 68.500 886 C 66.541 887.422, 65.043 889.384, 65.028 890.550 C 65.012 891.678, 64.589 893.028, 64.088 893.550 C 61.217 896.539, 57.807 907.960, 57.487 915.657 C 57.158 923.561, 55.132 930, 52.974 930 C 52.438 930, 52 931.125, 52 932.500 C 52 933.992, 52.572 935, 53.419 935 C 55.160 935, 60.985 931.767, 60.994 930.795 C 61.008 929.248, 66.307 924.904, 67.584 925.394 C 68.334 925.682, 69.297 925.326, 69.724 924.604 C 70.151 923.883, 71.513 922.760, 72.750 922.111 C 73.987 921.461, 75.032 920.158, 75.070 919.215 C 75.131 917.740, 75.245 917.766, 75.886 919.401 C 76.541 921.070, 76.792 920.917, 77.937 918.151 C 78.655 916.418, 79.976 914.990, 80.871 914.979 C 81.767 914.967, 83.767 913.167, 85.315 910.979 C 86.863 908.790, 88.568 907, 89.104 907 C 90.531 907, 97.316 900.012, 99.497 896.295 C 100.532 894.532, 102.306 892.957, 103.439 892.795 C 105.023 892.568, 105.571 891.651, 105.806 888.826 C 105.974 886.805, 106.762 884.613, 107.556 883.954 C 108.374 883.274, 109.015 880.967, 109.035 878.628 C 109.055 876.357, 109.714 873.375, 110.500 872 C 112.153 869.108, 112.514 859, 110.965 859 C 110.251 859, 110.251 858.399, 110.965 857.066 C 111.534 856.002, 112 854.202, 112 853.066 C 112 851.930, 112.563 850.993, 113.250 850.985 C 114.093 850.974, 114.011 850.634, 113 849.940 C 111.839 849.144, 112.157 848.977, 114.401 849.205 C 116.535 849.422, 117.371 849.038, 117.562 847.754 C 117.869 845.694, 116.426 844.502, 115.480 846.032 C 114.677 847.332, 112 845.396, 112 843.516 C 112 842.762, 111.099 842.450, 109.697 842.718 C 107.942 843.053, 107.101 842.516, 106.167 840.466 C 104.948 837.791, 104.962 837.777, 108.470 838.186 C 111.578 838.549, 112 838.332, 112 836.369 C 112 834.821, 112.685 834.041, 114.240 833.820 C 115.507 833.639, 116.640 832.657, 116.850 831.557 C 117.054 830.488, 118.296 828.768, 119.610 827.734 C 122.157 825.732, 122.825 821.545, 120.750 820.593 C 120.063 820.277, 120.512 820.270, 121.750 820.577 C 123.504 821.012, 124 820.706, 124 819.190 C 124 818.120, 124.643 815.706, 125.428 813.826 C 128.064 807.517, 124.992 793.025, 121.009 792.985 C 119.670 792.971, 119.669 792.860, 121 792 C 122 791.354, 122.083 791.026, 121.250 791.015 C 120.563 791.007, 119.986 789.987, 119.968 788.750 C 119.937 786.569, 119.892 786.558, 118.485 788.418 C 117.467 789.764, 117.341 790.706, 118.065 791.578 C 118.805 792.470, 118.563 793.198, 117.206 794.160 C 116.167 794.897, 114.789 796.496, 114.143 797.713 C 111.697 802.324, 109.897 799.390, 110.102 791.126 C 110.208 786.856, 109.677 781.520, 108.895 779 C 105.589 768.337, 107.706 709.203, 111.531 705.378 C 112.803 704.106, 114.111 702.225, 114.437 701.199 C 115.102 699.102, 116.097 698.870, 124.250 698.915 C 127.412 698.932, 130 698.509, 130 697.973 C 130 697.399, 134.682 697, 141.419 697 C 152.245 697, 158.537 695.581, 159.798 692.856 C 159.962 692.502, 160.989 692.446, 162.081 692.731 C 163.173 693.017, 164.875 692.518, 165.864 691.623 C 166.853 690.728, 167.930 690.263, 168.256 690.590 C 169.475 691.808, 176 688.614, 176 686.799 C 176 685.547, 176.760 685, 178.500 685 C 179.875 685, 181 684.550, 181 684 C 181 683.450, 181.675 683, 182.500 683 C 183.325 683, 184 683.450, 184 684 C 184 684.550, 186.250 685, 189 685 C 192.778 685, 194 685.367, 194 686.500 C 194 687.500, 195 688, 197 688 C 199 688, 200 687.500, 200 686.500 C 200 685.675, 200.450 685, 201 685 C 201.550 685, 202 685.540, 202 686.200 C 202 687.133, 202.267 687.133, 203.200 686.200 C 204.568 684.832, 208.400 684.544, 207.580 685.871 C 207.284 686.350, 207.893 687.724, 208.934 688.924 C 209.975 690.124, 211.133 693.333, 211.507 696.053 C 212.125 700.543, 212.433 701.007, 214.844 701.074 C 218.966 701.190, 222.363 701.963, 223.429 703.029 C 223.963 703.563, 227.348 704.007, 230.950 704.015 C 238.126 704.032, 241.819 705.288, 238.132 706.458 C 236.186 707.076, 234.998 709.158, 236.750 708.882 C 239.988 708.370, 244 709.201, 244 710.383 C 244 711.144, 244.900 712.002, 246 712.290 C 247.100 712.577, 248 712.350, 248 711.784 C 248 711.121, 248.477 711.151, 249.342 711.869 C 250.080 712.481, 250.980 712.687, 251.342 712.325 C 251.704 711.963, 252 712.417, 252 713.333 C 252 714.361, 252.807 715, 254.106 715 C 255.264 715, 257.070 716.090, 258.118 717.423 C 259.167 718.756, 261.369 720.142, 263.012 720.503 C 264.655 720.864, 266 721.504, 266 721.927 C 266 722.349, 267.012 723.183, 268.250 723.780 C 269.488 724.376, 269.938 724.895, 269.250 724.932 C 266.998 725.054, 267.942 726.726, 270.250 726.704 C 273.427 726.672, 276 727.972, 276 729.607 C 276 730.373, 276.900 731, 278 731 C 279.100 731, 280 730.488, 280 729.863 C 280 729.079, 281.983 728.885, 286.391 729.239 C 292.658 729.742, 296.550 728.787, 294.500 727.250 C 292.470 725.728, 293.249 724.491, 296.234 724.495 C 298.778 724.499, 299.346 724.072, 299.548 722 C 299.682 720.625, 300.116 718.488, 300.513 717.250 C 300.968 715.830, 300.821 715, 300.117 715 C 299.388 715, 299 712.224, 299 707 C 299 700.556, 299.292 699, 300.500 699 C 301.583 699, 302 697.889, 302 695 C 302 692.800, 302.450 691, 303 691 C 303.550 691, 304 690.100, 304 689 C 304 687.637, 304.667 687, 306.094 687 C 307.346 687, 308.397 686.197, 308.710 685 C 308.998 683.900, 309.856 683, 310.617 683 C 311.434 683, 312 681.953, 312 680.441 C 312 678.841, 312.411 678.136, 313.095 678.559 C 314.153 679.213, 318.343 677.522, 320.596 675.532 C 321.299 674.911, 321.408 673.309, 320.900 671.058 C 320.359 668.658, 320.487 667.317, 321.305 666.812 C 322.550 666.042, 323.120 639.002, 321.890 639.001 C 321.308 639, 320.262 632.042, 319.565 623.540 C 319.387 621.362, 318.737 619.412, 318.121 619.207 C 317.504 619.001, 317 618.244, 317 617.524 C 317 616.027, 314.271 614.714, 312.910 615.556 C 312.409 615.865, 312 615.416, 312 614.559 C 312 613.682, 311.150 613, 310.059 613 C 308.991 613, 307.840 612.550, 307.500 612 C 307.145 611.426, 308.054 611, 309.635 611 C 312.389 611, 312.389 611, 309 608.500 C 305.180 605.681, 304 605.404, 304 607.322 C 304 610.034, 292.986 608.685, 290.378 605.653 C 289.123 604.194, 287.373 603, 286.489 603 C 285.605 603, 285.120 602.615, 285.410 602.145 C 286.352 600.621, 281.464 596.893, 279.405 597.566 C 277.799 598.091, 277.735 598.005, 279 597.018 C 280.077 596.177, 280.164 595.710, 279.306 595.359 C 277.729 594.714, 278.805 591.988, 280.396 592.598 C 281.073 592.858, 282.455 592.155, 283.468 591.035 C 284.481 589.916, 285.915 589, 286.655 589 C 287.395 589, 288 588.550, 288 588 C 288 587.450, 287.532 587, 286.960 587 C 286.387 587, 287.062 585.767, 288.460 584.260 C 289.857 582.753, 291 581.152, 291 580.701 C 291 580.251, 291.450 580.160, 292 580.500 C 292.550 580.840, 293 580.454, 293 579.641 C 293 578.829, 294.688 577.340, 296.750 576.332 C 299.537 574.970, 300.582 573.790, 300.818 571.733 C 300.994 570.203, 301.583 569.242, 302.135 569.584 C 302.685 569.923, 303.382 569.256, 303.684 568.101 C 303.986 566.945, 304.856 566, 305.617 566 C 306.377 566, 307 565.550, 307 565 C 307 564.450, 307.863 564, 308.918 564 C 312.192 564, 314.017 562.868, 315.563 559.879 C 316.381 558.295, 317.715 557, 318.526 557 C 320.322 557, 320.479 555.360, 318.750 554.662 C 318.063 554.385, 318.423 554.122, 319.550 554.079 C 323.427 553.930, 325.207 549, 321.384 549 C 320.612 549, 318.748 547.217, 317.240 545.038 C 315.733 542.859, 314.021 541.059, 313.435 541.038 C 312.850 541.017, 311.619 539.425, 310.701 537.500 C 309.783 535.575, 308.450 534, 307.738 534 C 306.226 534, 302.605 530.062, 303.393 529.273 C 303.688 528.978, 303.454 527.847, 302.872 526.760 C 301.509 524.214, 301.401 512.994, 302.730 512.147 C 303.604 511.591, 303.688 497.867, 302.847 493 C 302.162 489.030, 304.331 473.087, 305.624 472.591 C 306.586 472.222, 307 470.207, 307 465.896 C 307 460.603, 307.354 459.401, 309.500 457.412 C 310.875 456.138, 312 454.174, 312 453.048 C 312 451.921, 312.637 451, 313.417 451 C 314.196 451, 315.007 450.478, 315.220 449.840 C 315.489 449.033, 316.144 448.981, 317.372 449.668 C 318.561 450.334, 320.653 450.271, 323.780 449.477 C 328.495 448.280, 332 448.539, 332 450.085 C 332 450.554, 332.645 450.690, 333.434 450.387 C 334.223 450.084, 338.941 451.223, 343.917 452.918 C 348.894 454.613, 353.638 456, 354.460 456 C 357.605 456, 361.406 466.536, 359.244 469.261 C 358.703 469.942, 357.968 472.075, 357.610 474 C 356.778 478.473, 349.434 490, 347.417 490 C 346.573 490, 346.131 490.403, 346.435 490.895 C 346.740 491.388, 346.345 492.037, 345.559 492.339 C 344.773 492.641, 343.931 492.350, 343.688 491.694 C 343.445 491.037, 342.928 491.695, 342.539 493.156 C 342.149 494.616, 341.028 496.021, 340.048 496.277 C 338.164 496.770, 336.828 501.132, 336.845 506.734 C 336.853 509.047, 336.092 510.582, 334.178 512.120 C 332.456 513.503, 331.946 514.431, 332.750 514.719 C 333.442 514.967, 334 516.807, 334 518.843 C 334 522.316, 336.928 525.869, 339.250 525.212 C 339.663 525.095, 340 525.500, 340 526.111 C 340 526.850, 341.256 526.994, 343.750 526.539 C 347.272 525.897, 347.378 525.949, 345.500 527.396 C 344.400 528.243, 341.813 528.951, 339.750 528.968 C 335.142 529.007, 334.820 530.559, 339.250 531.378 C 344.147 532.284, 348.337 530.807, 349.018 527.936 C 349.528 525.784, 350.057 525.539, 353.548 525.836 C 358.638 526.268, 361.362 526.321, 367.500 526.109 C 376.882 525.785, 378.745 526.100, 380.881 528.374 C 382.753 530.366, 383.548 530.526, 388.240 529.849 C 396.688 528.630, 400 527.826, 400 526.995 C 400 525.663, 404.947 524.901, 406.880 525.936 C 409.489 527.332, 416.255 526.107, 415.585 524.360 C 415.240 523.463, 415.818 523.005, 417.281 523.015 C 419.081 523.028, 419.216 523.214, 418 524 C 416.862 524.736, 417.284 524.973, 419.750 524.985 C 422.973 525, 424.152 523.631, 421.750 522.662 C 421.003 522.361, 421.205 522.126, 422.250 522.079 C 423.212 522.036, 424 521.367, 424 520.594 C 424 519.658, 425.736 518.949, 429.192 518.474 C 432.047 518.081, 435.004 517.139, 435.763 516.380 C 436.522 515.621, 437.786 515, 438.571 515 C 439.357 515, 440 514.643, 440 514.206 C 440 513.130, 450.704 510.949, 452.536 511.652 C 453.341 511.961, 454 511.772, 454 511.232 C 454 510.279, 457.470 509.236, 463.387 508.410 C 464.975 508.188, 466.860 507.218, 467.576 506.254 C 468.706 504.732, 469.168 504.677, 471.073 505.842 C 472.403 506.655, 473.511 506.807, 473.884 506.227 C 474.548 505.195, 478.089 503.872, 479.145 504.262 C 479.500 504.393, 480.664 503.709, 481.732 502.742 C 483.915 500.767, 489.128 501.245, 491.083 503.600 C 491.898 504.582, 492.727 504.681, 494.078 503.958 C 495.106 503.408, 498.297 502.513, 501.171 501.968 C 507.265 500.812, 508.089 499.856, 507.441 494.699 C 506.733 489.063, 506.652 488.826, 504.750 486.833 C 503.787 485.825, 503 484.100, 503 483 C 503 481.900, 502.464 481, 501.808 481 C 501.153 481, 498.995 479.313, 497.014 477.250 C 495.033 475.188, 492.532 473.003, 491.456 472.396 C 490.380 471.789, 489.056 469.989, 488.513 468.396 C 487.970 466.803, 487.211 465.266, 486.826 464.980 C 483.151 462.250, 484.549 456, 488.834 456 C 490.339 456, 494.130 455.100, 497.260 454 C 504.361 451.504, 508.058 451.479, 512.790 453.894 C 516.454 455.764, 521.093 460, 519.476 460 C 519.017 460, 520.758 462.027, 523.343 464.504 C 531.129 471.965, 546.343 470.657, 555.236 461.764 C 557.423 459.577, 561.342 459.485, 563.429 461.571 C 565.745 463.888, 565.400 465.073, 561.250 469.047 C 550.288 479.545, 547.580 484.221, 546.461 494.585 C 545.523 503.268, 546.483 506.738, 550.296 508.453 C 554.414 510.305, 557.530 512.804, 556.725 513.609 C 556.087 514.246, 558.448 517.131, 559.500 517 C 560.403 516.887, 563 519.752, 563 520.861 C 563 521.413, 563.858 522.138, 564.908 522.471 C 565.957 522.804, 567.075 523.754, 567.394 524.583 C 568.164 526.590, 574.114 529, 578.301 529 C 580.152 529, 581.984 529.317, 582.371 529.704 C 582.759 530.092, 584.296 530.552, 585.788 530.727 C 587.280 530.901, 589.513 531.484, 590.750 532.022 C 596.211 534.396, 597.713 534.891, 601.153 535.455 C 605.065 536.097, 607.844 539.136, 607.615 542.523 C 607.461 544.820, 600.016 552.965, 599.968 550.890 C 599.945 549.875, 599.578 549.972, 598.608 551.250 C 597.877 552.213, 596.642 553, 595.862 553 C 595.082 553, 593.674 553.900, 592.732 555 C 591.790 556.100, 591.262 557, 591.558 557 C 592.528 557, 599.381 553.369, 605.498 549.614 C 608.797 547.589, 613.183 545.426, 615.246 544.808 C 619.656 543.487, 627.668 535.233, 633.131 526.382 C 637.137 519.892, 639 507.887, 639 488.557 C 639 476.876, 643.939 463, 648.096 463 C 648.513 463, 649.948 460.637, 651.287 457.750 C 652.625 454.862, 657.137 448.675, 661.313 444 C 672.119 431.902, 672.539 431.004, 682.533 398.500 C 689.794 374.885, 689.925 373.377, 690.481 307.203 C 690.982 247.475, 691.317 244.012, 696.916 240.552 C 700.045 238.618, 701.947 228.740, 703.027 208.811 C 703.633 197.640, 704.549 187.719, 705.064 186.764 C 705.579 185.809, 706 184.445, 706 183.733 C 706 183.022, 707.619 178.628, 709.599 173.970 C 713.600 164.551, 715.397 152.871, 716.976 126 C 717.541 116.397, 718.533 109.137, 719.914 104.503 C 722.392 96.191, 722.526 92.194, 720.489 87.319 C 719.658 85.330, 718.474 79.382, 717.858 74.101 C 715.368 52.758, 711.648 50, 685.343 50 C 663.057 50, 615.573 88.569, 600.490 118.922 C 552.766 214.957, 422.325 238.251, 357 162.404 C 347.863 151.795, 338.828 141.548, 327.633 129.098 C 320.556 121.228, 318.911 118.742, 317.535 113.839 C 316.631 110.618, 314.904 106.931, 313.696 105.647 C 305.890 97.343, 299.351 89.149, 298.449 86.541 C 297.871 84.868, 294.880 80.099, 291.802 75.943 C 278.851 58.452, 265.885 36.645, 263.163 27.779 C 256.413 5.791, 237.713 0.285, 181.541 3.745 M 254.750 223.731 C 253.787 223.960, 253 224.789, 253 225.573 C 253 226.428, 251.998 227, 250.500 227 C 248.100 227, 248 227.251, 247.997 233.250 C 247.994 239.083, 247.794 239.633, 244.992 241.500 C 243.341 242.600, 242.191 244.030, 242.436 244.677 C 242.681 245.324, 242.214 246.408, 241.398 247.085 C 240.396 247.916, 240.244 248.644, 240.929 249.329 C 241.977 250.377, 240.257 251.742, 234.804 254.188 C 231.875 255.502, 231.264 257.777, 231.095 268 C 231.045 271.025, 230.565 274.625, 230.027 276 C 226.351 285.401, 226.889 299.779, 231.057 303.551 C 232.126 304.519, 233 305.889, 233 306.596 C 233 309.932, 247.903 307.379, 248.079 304.012 C 248.133 302.986, 248.320 302.901, 248.662 303.750 C 249.234 305.166, 252 305.470, 252 304.117 C 252 303.631, 252.787 302.945, 253.750 302.592 C 258.209 300.957, 261.183 298.577, 263.246 294.994 C 267.342 287.878, 274.298 286.900, 281 292.500 C 286.053 296.721, 292.895 295.366, 291.094 290.500 C 290.890 289.950, 290.793 288.146, 290.877 286.492 C 290.961 284.838, 290.577 281.238, 290.023 278.492 C 289.469 275.746, 288.315 269.675, 287.459 265 C 285.840 256.161, 283.949 252, 281.548 252 C 280.705 252, 279.504 249.806, 278.548 246.518 C 277.031 241.297, 273.545 236.545, 271.955 237.528 C 271.547 237.780, 270.946 236.920, 270.618 235.616 C 270.291 234.312, 268.893 232.505, 267.512 231.600 C 266.130 230.694, 265 229.289, 265 228.477 C 265 227.191, 263.162 226.501, 260.750 226.882 C 260.337 226.947, 260 226.196, 260 225.213 C 260 223.435, 258.170 222.918, 254.750 223.731 M 360.957 278.376 C 360.692 278.641, 358.006 279.082, 354.988 279.356 C 340.785 280.645, 331.165 286.107, 318.630 300 C 315.412 303.566, 313.741 310.154, 315.381 312.808 C 315.825 313.526, 316.351 315.101, 316.549 316.307 C 317.131 319.845, 319.764 328.690, 320.825 330.673 C 321.363 331.678, 322.113 334.750, 322.493 337.500 C 322.872 340.250, 323.546 344.075, 323.991 346 C 324.436 347.925, 325.058 350.659, 325.375 352.076 C 326.455 356.910, 340.290 368.587, 349.493 372.432 C 357.153 375.633, 369.687 375.042, 377.848 371.095 C 385.836 367.232, 389.401 365.252, 390.960 363.810 C 391.965 362.881, 393.094 362.428, 393.470 362.803 C 394.224 363.558, 403.975 353.154, 404.042 351.523 C 404.129 349.368, 410.741 342.884, 411.318 344.387 C 412.269 346.866, 407.733 359.138, 402.793 367.451 C 397.117 377.003, 397.238 377.283, 405.037 372.637 C 408.392 370.639, 412.344 368.710, 413.819 368.350 C 424.755 365.686, 430.696 354.359, 427.600 342.075 C 426.828 339.009, 425.686 333.700, 425.064 330.277 C 422.097 313.956, 412.077 300.193, 395.600 289.806 C 390.951 286.875, 374.378 280.139, 370.405 279.565 C 367.707 279.175, 364.586 278.640, 363.470 278.375 C 362.353 278.110, 361.223 278.111, 360.957 278.376 M 615.530 297.160 C 612.247 298.269, 608.352 300.037, 606.876 301.088 C 605.399 302.140, 603.746 303, 603.203 303 C 602.659 303, 601.955 303.675, 601.638 304.500 C 601.322 305.325, 600.546 306, 599.913 306 C 597.265 306, 583.514 320.405, 584.555 322.089 C 584.788 322.465, 584.343 323.300, 583.567 323.944 C 582.791 324.588, 581.857 326.887, 581.491 329.052 C 581.125 331.218, 580.415 333.243, 579.913 333.554 C 577.257 335.195, 581.166 347.936, 585.978 353.323 C 587.365 354.875, 589.420 357.846, 590.545 359.925 C 593.313 365.039, 598.886 371.215, 602.314 372.968 C 603.862 373.759, 607.132 376.354, 609.581 378.734 C 616.284 385.249, 616.888 385.369, 630.239 382.825 C 633.395 382.223, 636.488 381.117, 637.111 380.366 C 637.735 379.615, 638.834 379, 639.555 379 C 640.276 379, 641.139 378.136, 641.475 377.080 C 641.810 376.024, 643.607 373.497, 645.468 371.465 C 648.968 367.644, 649.668 366.195, 652.389 357.135 C 655.736 345.989, 652.019 319, 647.137 319 C 646.179 319, 642 309.065, 642 306.788 C 642 302.707, 637.930 298, 634.401 298 C 632.045 298, 631 297.539, 631 296.500 C 631 294.317, 622.925 294.661, 615.530 297.160 M 370.960 301.831 C 366.372 305.547, 369.851 309.864, 378.648 311.370 C 385.268 312.504, 385.552 303.939, 378.942 302.487 C 377.337 302.135, 375.766 301.431, 375.452 300.923 C 374.610 299.559, 373.485 299.787, 370.960 301.831 M 339 314.083 C 339 316.520, 341.337 316.176, 341.823 313.667 C 342.015 312.680, 341.505 312, 340.573 312 C 339.646 312, 339 312.855, 339 314.083 M 616.797 312.683 C 612.759 313.739, 613.318 318.749, 617.746 321.202 C 623.073 324.152, 629.641 323.654, 630.295 320.250 C 630.972 316.721, 629.710 315.268, 624.821 313.952 C 622.651 313.367, 620.341 312.743, 619.687 312.563 C 619.034 312.384, 617.734 312.438, 616.797 312.683 M 298.508 495.962 C 298.151 497.591, 298.326 499.728, 298.899 500.712 C 299.726 502.134, 299.945 501.528, 299.970 497.750 C 300.004 492.327, 299.455 491.654, 298.508 495.962 M 525.652 584.682 C 525.277 585.056, 522.614 585.262, 519.735 585.137 C 514.771 584.923, 506.953 587.041, 497 591.296 C 495.075 592.119, 491.925 593.007, 490 593.271 C 478.033 594.908, 467.373 600.414, 467.799 604.738 C 468.048 607.273, 467.527 608.129, 464.648 609.908 C 461.125 612.086, 460 613.789, 460 616.945 C 460 617.925, 458.883 619.845, 457.517 621.210 C 456.152 622.576, 454.879 624.713, 454.688 625.959 C 454.498 627.206, 452.852 629.750, 451.031 631.613 C 449.209 633.476, 448.176 635, 448.735 635 C 449.293 635, 449.750 636.022, 449.750 637.271 C 449.750 638.521, 450.864 641.185, 452.226 643.192 C 453.697 645.359, 454.959 649.006, 455.334 652.170 C 455.681 655.102, 456.575 657.950, 457.320 658.500 C 458.066 659.050, 458.486 660.063, 458.254 660.750 C 458.023 661.438, 458.321 662, 458.917 662 C 459.512 662, 460 663.152, 460 664.559 C 460 666.010, 460.433 666.851, 461 666.500 C 461.603 666.128, 462 667.462, 462 669.859 C 462 675.027, 462.947 677.691, 464.124 675.834 C 464.774 674.808, 464.973 674.899, 464.985 676.227 C 464.993 677.177, 466.070 678.655, 467.378 679.512 C 469.841 681.126, 471.576 686.977, 471.127 692.159 C 471 693.621, 471.370 695.110, 471.948 695.468 C 472.527 695.826, 473 697.611, 473 699.437 C 473 701.262, 473.675 703.315, 474.500 704 C 475.325 704.685, 476 706.053, 476 707.041 C 476 710.795, 479.351 714.987, 482.357 714.994 C 484.494 714.998, 485.068 715.381, 484.634 716.512 C 483.836 718.590, 486.072 723.186, 487.595 722.602 C 488.277 722.340, 489.102 722.823, 489.429 723.674 C 489.846 724.763, 489.574 725.051, 488.511 724.643 C 486.313 723.799, 486.660 725.306, 489 726.768 C 491.481 728.317, 491.518 729.528, 489.160 732.059 C 488.148 733.145, 486.798 735.151, 486.160 736.517 C 485.522 737.883, 484.438 740.217, 483.750 741.705 C 483.063 743.193, 479.943 747.155, 476.818 750.510 C 473.693 753.864, 470.831 757.826, 470.457 759.314 C 470.084 760.802, 469.378 762.266, 468.889 762.568 C 468.400 762.871, 468 764.932, 468 767.149 C 468 770.678, 467.376 771.782, 463 776 C 459.592 779.285, 458 781.623, 458 783.344 C 458 787.475, 456.495 790.211, 451.192 795.722 C 446.698 800.391, 446.167 801.413, 446.167 805.380 C 446.167 807.820, 445.491 810.870, 444.665 812.158 C 443.839 813.446, 442.636 816.525, 441.992 819 C 441.348 821.475, 439.901 824.493, 438.776 825.707 C 436.790 827.851, 436.782 828.021, 438.480 831.599 C 440.603 836.072, 441.676 843, 440.247 843 C 439.104 843, 436 851.748, 436 854.970 C 436 856.122, 435.212 857.387, 434.250 857.782 C 433.288 858.177, 432.400 859.471, 432.278 860.658 C 432.156 861.845, 430.750 864.770, 429.154 867.158 C 427.557 869.546, 425.953 872.471, 425.588 873.658 C 425.223 874.844, 424.277 876.063, 423.486 876.367 C 418.680 878.211, 416.094 898.415, 419.949 904 C 422.730 908.029, 423.074 909.957, 421.456 912.427 C 420.279 914.223, 420.142 915.676, 420.851 918.830 C 421.391 921.235, 421.398 923.034, 420.869 923.210 C 420.375 923.375, 419.692 926.658, 419.352 930.505 C 418.996 934.522, 418.085 938.245, 417.212 939.250 C 415.763 940.915, 421.966 941, 545.657 941 C 675.624 941, 675.624 941, 674.417 934.250 C 670.801 914.033, 662.129 889.696, 654.663 878.809 C 652.373 875.470, 649.855 871.785, 649.067 870.619 C 648.279 869.454, 646.226 866.925, 644.506 865 C 642.786 863.075, 640.093 859.700, 638.521 857.500 C 631.969 848.328, 624.701 840.042, 622.671 839.427 C 619.180 838.370, 595.046 828.202, 588.500 825.030 C 585.200 823.431, 580.584 821.573, 578.243 820.901 C 565.226 817.165, 548.788 789.938, 545.999 767.492 C 545.409 762.741, 543.542 755.174, 541.850 750.677 C 540.158 746.180, 538.142 740.782, 537.369 738.682 C 535.516 733.649, 535.392 723.663, 536.890 700.127 C 538.624 672.898, 538.127 663.063, 534.305 649 C 532.586 642.675, 530.409 632.100, 529.467 625.500 C 528.525 618.900, 526.910 610.927, 525.877 607.782 C 523.525 600.616, 523.358 589.362, 525.557 586.223 C 527.043 584.100, 527.097 583.237, 525.652 584.682" stroke="none" fill="#b48e82" fill-rule="evenodd"/></svg>